<svg
  xmlns="http://www.w3.org/2000/svg"
  viewBox="0 0 28 28"
>
  <path
              d="M 14 7.438 C 14 11.062 11.122 14 7.571 14 L 1.143 14 L 1.143 7.438 C 1.143 3.813 4.021 0.875 7.571 0.875 C 11.122 0.875 14 3.813 14 7.438 Z M 14 20.563 C 14 16.938 16.878 14 20.429 14 L 26.857 14 L 26.857 20.563 C 26.857 24.187 23.979 27.125 20.429 27.125 C 16.878 27.125 14 24.187 14 20.563 Z M 1.143 20.563 C 1.143 24.187 4.021 27.125 7.571 27.125 L 14 27.125 L 14 20.563 C 14 16.938 11.122 14 7.571 14 C 4.021 14 1.143 16.938 1.143 20.563 Z M 26.857 7.438 C 26.857 3.813 23.979 0.875 20.429 0.875 L 14 0.875 L 14 7.438 C 14 11.062 16.878 14 20.429 14 C 23.979 14 26.857 11.062 26.857 7.438 Z"
              fill="rgb(255, 255, 255)"
            /><!-- Your icon’s paths/shapes go here -->
</svg>
